<?xml version="1.0" encoding="UTF-8"?>
<svg version="1.1" xmlns="http://www.w3.org/2000/svg" width="469" height="84">
<path d="M0 0 C51.15 0 102.3 0 155 0 C155 27.39 155 54.78 155 83 C103.85 83 52.7 83 0 83 C0 55.61 0 28.22 0 0 Z M22.22265625 26.6953125 C18.16340844 31.59816927 16.15890246 36.61410739 16 43 C16.9272354 49.98903686 20.66819218 55.50227697 26 60 C29.57397564 61.95421053 32.88337732 63 37 63 C37 49.14 37 35.28 37 21 C30.75738415 21 26.7754234 22.35267307 22.22265625 26.6953125 Z M48 21 C49.67336357 26.14496756 49.67336357 26.14496756 52.03125 30.70703125 C52.42505859 31.36840088 52.81886719 32.02977051 53.22460938 32.71118164 C53.64548828 33.4046167 54.06636719 34.09805176 54.5 34.8125 C55.39628299 36.3070221 56.29210182 37.80182263 57.1875 39.296875 C57.64898437 40.06451172 58.11046875 40.83214844 58.5859375 41.62304688 C60.01917479 44.03223165 61.42002367 46.45768103 62.8125 48.890625 C63.26302734 49.67332764 63.71355469 50.45603027 64.17773438 51.26245117 C65.04889881 52.77782048 65.91492192 54.29615884 66.77539062 55.81762695 C67.79477331 57.57839782 68.8902107 59.29476605 70 61 C70.66 61 71.32 61 72 61 C72.38220703 60.31599121 72.76441406 59.63198242 73.15820312 58.92724609 C74.93811903 55.74278163 76.71892343 52.55881545 78.5 49.375 C79.13695801 48.23611328 79.77391602 47.09722656 80.43017578 45.92382812 C84.48553367 38.68086618 88.57693107 31.46152469 92.7421875 24.28125 C94.08047325 22.28822059 94.08047325 22.28822059 94 21 C78.82 21 63.64 21 48 21 Z M103.125 29 C98.96542385 34.8723428 98.14186082 39.88504853 99 47 C100.83252384 53.2218025 104.6611689 57.4485675 110 61 C115.46795371 63.5594677 120.87317014 64.11229215 126.55859375 62.08984375 C133.18051652 59.02978731 137.17949126 55.90109015 140.3125 49.1875 C141.75662372 42.49201729 141.74783834 36.93164415 138.33984375 30.85546875 C135.20910059 26.51989149 130.97134915 23.00486891 126 21 C116.2242603 19.67329247 109.67054075 21.67658339 103.125 29 Z " fill="#FFFFFF" transform="translate(0,0)"/>
<path d="M0 0 C3 0.125 3 0.125 4 1.125 C4.15740605 2.83063778 4.25093392 4.54227244 4.31640625 6.25390625 C4.37924805 7.80561523 4.37924805 7.80561523 4.44335938 9.38867188 C4.48267578 10.47728516 4.52199219 11.56589844 4.5625 12.6875 C4.60568359 13.77998047 4.64886719 14.87246094 4.69335938 15.99804688 C4.79982068 18.70689564 4.90183516 21.41583992 5 24.125 C5.76699219 23.49078125 6.53398437 22.8565625 7.32421875 22.203125 C11.7587675 18.7590667 16.16159471 17.63313623 21.7890625 17.81640625 C28.92622061 18.81258203 34.35982338 21.62815081 38.84375 27.24609375 C43.04769172 34.07749905 42.64243239 41.38286613 42 49.125 C40.54547187 55.12723002 37.02304058 58.53956078 32 61.9375 C26.24859884 65.35239444 20.5588957 65.8978004 14 65.125 C6.91947776 63.30297636 1.93518955 59.25125077 -2 53.125 C-4.39641284 47.60366047 -4.27412469 42.41769075 -4.23046875 36.51171875 C-4.23001053 35.50156204 -4.22955231 34.49140533 -4.2290802 33.45063782 C-4.22606883 31.3250714 -4.21821606 29.19950696 -4.20581055 27.07397461 C-4.18746575 23.80639925 -4.18530161 20.53910605 -4.18554688 17.27148438 C-4.18063467 15.2057267 -4.17480765 13.13997095 -4.16796875 11.07421875 C-4.16685593 10.09200851 -4.1657431 9.10979828 -4.16459656 8.0978241 C-4.15821671 7.19631119 -4.15183685 6.29479828 -4.14526367 5.3659668 C-4.14145187 4.56909958 -4.13764008 3.77223236 -4.13371277 2.95121765 C-3.90376004 -0.18942286 -3.19919866 0.13329994 0 0 Z M8 30.125 C4.53718736 34.77245907 3.3839919 38.18874132 3.6796875 43.984375 C4.34255087 48.41424243 6.10911696 51.20866316 9.1875 54.375 C13.99324036 57.36523844 17.9947896 58.40158074 23.625 57.625 C28.62314917 55.40360037 31.87289119 52.98097911 33.921875 47.7890625 C35.20220087 42.71460021 35.29864087 38.68930982 33.12890625 33.8828125 C30.85878303 30.34801855 27.75349129 28.00174564 24 26.125 C17.60922724 25.42385407 12.90805831 25.56751728 8 30.125 Z " fill="#FFFFFF" transform="translate(336,-0.125)"/>
<path d="M0 0 C4.61060462 4.23251404 6.84355379 9.29826211 7.390625 15.484375 C7.54105454 23.356854 6.4190993 29.08600579 1 35 C-4.66108053 40.18734994 -10.61205149 41.81240118 -18.2265625 41.53125 C-24.59048819 40.68529009 -29.97359879 38.57334163 -34.3125 33.75 C-38.81746679 27.74760763 -40.20618463 21.34039434 -39.63671875 13.88671875 C-38.50613892 7.27453975 -35.41154956 1.93038799 -30.0390625 -2.1640625 C-20.18894604 -8.14295415 -8.84346427 -7.07848716 0 0 Z M-28.5625 7.8125 C-31.52346089 11.58866215 -32.09264323 15.46626259 -31.8125 20.1875 C-30.25181655 25.38977816 -28.14849822 28.88837092 -23.8125 32.1875 C-19.29442891 34.07938828 -15.27483234 34.68404411 -10.5625 33.1875 C-6.4467494 31.34732408 -4.34700973 28.8740596 -1.8125 25.1875 C-0.21542251 20.39626752 0.22334479 15.67610637 -1.75390625 10.92578125 C-4.10767502 6.9339665 -6.33025542 3.78118696 -10.8125 2.1875 C-18.62980573 1.28301835 -22.83531748 2.34564395 -28.5625 7.8125 Z " fill="#FFFFFF" transform="translate(426.8125,23.8125)"/>
<path d="M0 0 C6.35902753 5.1566904 8.55872458 12.02852122 9.4375 19.9375 C9.0838548 27.03869564 6.37445902 33.155481 1.1875 38 C-4.89725784 42.77125846 -11.44760522 43.82176316 -19 43 C-25.10116292 41.65299 -29.79906473 38.59094253 -34 34 C-37.85389404 27.7053064 -39.06430549 21.08701945 -37.5390625 13.796875 C-35.64396249 7.24205851 -32.73127694 2.14484967 -26.703125 -1.3203125 C-17.31711811 -5.48863233 -8.96157703 -5.15138272 0 0 Z M-26 8 C-29.31861344 12.79586457 -30.84060102 17.11579285 -30 23 C-28.51369868 27.43385393 -26.73847301 30.35999006 -23.1875 33.4375 C-18.14548574 35.90907562 -14.17045 36.61459415 -8.8125 34.875 C-4.18368928 32.90529331 -2.06520124 30.02388236 0.25 25.625 C1.68297372 20.60959196 1.4899641 16.55354451 -0.625 11.8125 C-2.81116935 7.9167311 -4.8137161 5.82674207 -9 4 C-15.58747138 3.05753017 -21.03126962 3.15245816 -26 8 Z " fill="#FFFFFF" transform="translate(312,22)"/>
<path d="M0 0 C1.2065625 0.0309375 1.2065625 0.0309375 2.4375 0.0625 C17.4375 28.13673581 17.4375 28.13673581 17.4375 32.0625 C18.0975 32.0625 18.7575 32.0625 19.4375 32.0625 C20.02144531 30.19078125 20.02144531 30.19078125 20.6171875 28.28125 C22.53685202 22.52451222 25.02232216 17.06743872 27.5625 11.5625 C28.01753906 10.5621875 28.47257812 9.561875 28.94140625 8.53125 C32.29675752 1.20324248 32.29675752 1.20324248 33.4375 0.0625 C35.10367115 0.02186168 36.77138095 0.019779 38.4375 0.0625 C39.55639648 1.74145508 39.55639648 1.74145508 40.4375 4.0625 C39.80102539 6.47143555 39.80102539 6.47143555 38.53515625 9.19921875 C38.06408447 10.23643066 37.5930127 11.27364258 37.10766602 12.34228516 C36.57713623 13.46683105 36.04660645 14.59137695 35.5 15.75 C34.67470494 17.5396028 33.84944474 19.32922208 33.02549744 21.1194458 C32.43839684 22.39223397 31.84903418 23.66398079 31.25758362 24.93475342 C29.26962764 29.21352742 27.34976005 33.51730366 25.47071838 37.84498596 C24.15003549 40.88628748 22.81448431 43.92095492 21.47775269 46.95523071 C20.82667056 48.4416911 20.18156566 49.93078411 19.54251099 51.42245483 C18.6409216 53.52163019 17.71602049 55.60898781 16.78515625 57.6953125 C16.25929932 58.90074707 15.73344238 60.10618164 15.19165039 61.34814453 C13.4375 64.0625 13.4375 64.0625 10.85327148 65.02294922 C8.4375 65.0625 8.4375 65.0625 6.4375 64.0625 C6.70809577 57.16230794 9.10598911 52.26978666 12.35546875 46.2109375 C14.03018409 41.33793907 11.94401556 38.15116152 9.83349609 33.61499023 C9.21256204 32.36540343 8.58822296 31.11750429 7.9609375 29.87109375 C7.28350574 28.50082324 6.60643304 27.13037517 5.9296875 25.75976562 C4.86937134 23.62264278 3.8060603 21.48716296 2.73632812 19.35473633 C1.69820292 17.28110505 0.67253847 15.20167889 -0.3515625 13.12109375 C-0.67339508 12.48763535 -0.99522766 11.85417694 -1.32681274 11.20152283 C-3.04270688 7.69272837 -4.04892078 4.98319589 -3.5625 1.0625 C-2.5625 0.0625 -2.5625 0.0625 0 0 Z " fill="#FFFFFF" transform="translate(231.5625,18.9375)"/>
<path d="M0 0 C3 2.375 3 2.375 5 5 C5.3125 7.8125 5.3125 7.8125 5 10 C2.9375 10.8125 2.9375 10.8125 0 11 C-1.5390625 9.953125 -1.5390625 9.953125 -3.1875 8.5625 C-6.93699005 5.6316759 -9.94398396 5.31515409 -14.6328125 5.5859375 C-18.29321285 6.22620555 -20.31758995 7.44843922 -23 10 C-25.69375561 14.75896825 -26.66732206 18.56609183 -26 24 C-24.58918948 28.10348652 -23.01100819 31.17523016 -19.625 33.9375 C-13.63030965 36.36392228 -10.05115574 35.96180846 -4.125 33.76953125 C-1.77963691 32.9201994 0.53904164 32.39692877 3 32 C3.66 33.65 4.32 35.3 5 37 C1.0962794 41.71699573 -3.46848231 43.52799361 -9.42578125 44.32421875 C-16.45122189 44.64107377 -22.35407619 43.07276548 -27.7890625 38.4921875 C-32.66448296 33.32856484 -34.62806139 27.47142699 -35.375 20.5 C-34.47462027 12.09645585 -31.63870403 5.4701894 -25 0 C-16.96638332 -4.29805704 -8.02657112 -4.29567026 0 0 Z " fill="#FFFFFF" transform="translate(217,21)"/>
<path d="M0 0 C1 1 1 1 1.09765625 4.16015625 C1.08605469 5.44792969 1.07445312 6.73570313 1.0625 8.0625 C1.05347656 9.35285156 1.04445313 10.64320312 1.03515625 11.97265625 C1.02355469 12.97167969 1.01195312 13.97070312 1 15 C1.69867188 14.97679687 2.39734375 14.95359375 3.1171875 14.9296875 C4.02726562 14.91164063 4.93734375 14.89359375 5.875 14.875 C7.23238281 14.84019531 7.23238281 14.84019531 8.6171875 14.8046875 C11 15 11 15 13 17 C12.67 18.65 12.34 20.3 12 22 C8.37 22 4.74 22 1 22 C1.08721715 25.54282061 1.19414214 29.08319684 1.3125 32.625 C1.33505859 33.62402344 1.35761719 34.62304688 1.38085938 35.65234375 C1.63692655 43.27102217 1.63692655 43.27102217 5 50 C7.1929047 51.09753853 7.1929047 51.09753853 9.625 51.3125 C13.96571429 51.96571429 13.96571429 51.96571429 15 53 C15.125 55.5 15.125 55.5 15 58 C13.29207001 59.70792999 11.14456519 59.25270346 8.8125 59.3125 C3.71730938 59.25963161 0.84772903 58.55914935 -3 55 C-8.00381664 48.44327474 -7.12835931 40.47745668 -7.0625 32.625 C-7.05798828 31.60277344 -7.05347656 30.58054687 -7.04882812 29.52734375 C-7.037103 27.01816806 -7.02069176 24.5091151 -7 22 C-9.31 22 -11.62 22 -14 22 C-14.6875 20.1875 -14.6875 20.1875 -15 18 C-13.875 16.25 -13.875 16.25 -12 15 C-10.33407539 14.95027091 -8.66577157 14.94538454 -7 15 C-7.01160156 14.16855469 -7.02320313 13.33710938 -7.03515625 12.48046875 C-7.04869141 10.85044922 -7.04869141 10.85044922 -7.0625 9.1875 C-7.07410156 8.10855469 -7.08570313 7.02960937 -7.09765625 5.91796875 C-7 3 -7 3 -6 0 C-3.49749232 -1.25125384 -2.59701335 -0.83774624 0 0 Z " fill="#FFFFFF" transform="translate(454,5)"/>
</svg>
